<mxfile host="app.diagrams.net" modified="2024-06-19T03:43:41.645Z" agent="Mozilla/5.0 (Windows NT 10.0; Win64; x64; rv:127.0) Gecko/20100101 Firefox/127.0" etag="0I1JRoqKkK9Y4bP4zhQn" version="24.5.4" type="github" pages="2">
  <diagram name="Page-1" id="0ORSx8LRnBOkC67IxLJI">
    <mxGraphModel dx="2085" dy="656" grid="1" gridSize="10" guides="1" tooltips="1" connect="1" arrows="1" fold="1" page="1" pageScale="1" pageWidth="850" pageHeight="1100" math="0" shadow="0">
      <root>
        <mxCell id="0" />
        <mxCell id="1" parent="0" />
        <mxCell id="L7Zl3QWs8CthCIQaCz2B-14" style="edgeStyle=orthogonalEdgeStyle;rounded=0;orthogonalLoop=1;jettySize=auto;html=1;entryX=0;entryY=0.5;entryDx=0;entryDy=0;" edge="1" parent="1" source="L7Zl3QWs8CthCIQaCz2B-1" target="L7Zl3QWs8CthCIQaCz2B-13">
          <mxGeometry relative="1" as="geometry" />
        </mxCell>
        <mxCell id="L7Zl3QWs8CthCIQaCz2B-1" value="CHAT LIBRARY&lt;br&gt;" style="rounded=0;whiteSpace=wrap;html=1;" vertex="1" parent="1">
          <mxGeometry x="160" y="200" width="120" height="60" as="geometry" />
        </mxCell>
        <mxCell id="L7Zl3QWs8CthCIQaCz2B-16" style="edgeStyle=orthogonalEdgeStyle;rounded=0;orthogonalLoop=1;jettySize=auto;html=1;entryX=0.5;entryY=1;entryDx=0;entryDy=0;exitX=0.5;exitY=1;exitDx=0;exitDy=0;" edge="1" parent="1" source="L7Zl3QWs8CthCIQaCz2B-3" target="L7Zl3QWs8CthCIQaCz2B-15">
          <mxGeometry relative="1" as="geometry" />
        </mxCell>
        <mxCell id="L7Zl3QWs8CthCIQaCz2B-23" style="edgeStyle=orthogonalEdgeStyle;rounded=0;orthogonalLoop=1;jettySize=auto;html=1;entryX=0;entryY=0.5;entryDx=0;entryDy=0;" edge="1" parent="1" source="L7Zl3QWs8CthCIQaCz2B-3" target="L7Zl3QWs8CthCIQaCz2B-8">
          <mxGeometry relative="1" as="geometry" />
        </mxCell>
        <mxCell id="L7Zl3QWs8CthCIQaCz2B-3" value="MS CHAT (3 endpoint)" style="rounded=0;whiteSpace=wrap;html=1;" vertex="1" parent="1">
          <mxGeometry x="80" y="320" width="120" height="60" as="geometry" />
        </mxCell>
        <mxCell id="L7Zl3QWs8CthCIQaCz2B-4" value="Buyer/Seller/etc" style="rounded=0;whiteSpace=wrap;html=1;fillColor=#dae8fc;strokeColor=#6c8ebf;" vertex="1" parent="1">
          <mxGeometry x="140" y="40" width="120" height="60" as="geometry" />
        </mxCell>
        <mxCell id="L7Zl3QWs8CthCIQaCz2B-5" value="" style="endArrow=classic;html=1;rounded=0;exitX=0.5;exitY=0;exitDx=0;exitDy=0;entryX=0.5;entryY=1;entryDx=0;entryDy=0;" edge="1" parent="1" source="L7Zl3QWs8CthCIQaCz2B-7" target="L7Zl3QWs8CthCIQaCz2B-4">
          <mxGeometry width="50" height="50" relative="1" as="geometry">
            <mxPoint x="400" y="300" as="sourcePoint" />
            <mxPoint x="450" y="250" as="targetPoint" />
          </mxGeometry>
        </mxCell>
        <mxCell id="L7Zl3QWs8CthCIQaCz2B-6" value="" style="endArrow=classic;html=1;rounded=0;exitX=0.5;exitY=0;exitDx=0;exitDy=0;entryX=0.5;entryY=1;entryDx=0;entryDy=0;" edge="1" parent="1" source="L7Zl3QWs8CthCIQaCz2B-1" target="L7Zl3QWs8CthCIQaCz2B-7">
          <mxGeometry width="50" height="50" relative="1" as="geometry">
            <mxPoint x="220" y="200" as="sourcePoint" />
            <mxPoint x="180" y="100" as="targetPoint" />
          </mxGeometry>
        </mxCell>
        <mxCell id="L7Zl3QWs8CthCIQaCz2B-7" value="&lt;div&gt;Installable, gitlab registry&lt;/div&gt;" style="text;html=1;strokeColor=none;fillColor=none;align=center;verticalAlign=middle;whiteSpace=wrap;rounded=0;" vertex="1" parent="1">
          <mxGeometry x="170" y="135" width="90" height="30" as="geometry" />
        </mxCell>
        <mxCell id="L7Zl3QWs8CthCIQaCz2B-8" value="Firebase SDKs" style="rounded=0;whiteSpace=wrap;html=1;" vertex="1" parent="1">
          <mxGeometry x="240" y="320" width="120" height="60" as="geometry" />
        </mxCell>
        <mxCell id="L7Zl3QWs8CthCIQaCz2B-9" value="" style="endArrow=classic;html=1;rounded=0;exitX=0.5;exitY=1;exitDx=0;exitDy=0;entryX=0.5;entryY=0;entryDx=0;entryDy=0;" edge="1" parent="1" source="L7Zl3QWs8CthCIQaCz2B-1" target="L7Zl3QWs8CthCIQaCz2B-8">
          <mxGeometry width="50" height="50" relative="1" as="geometry">
            <mxPoint x="210" y="280" as="sourcePoint" />
            <mxPoint x="440" y="270" as="targetPoint" />
          </mxGeometry>
        </mxCell>
        <mxCell id="L7Zl3QWs8CthCIQaCz2B-10" value="&lt;div&gt;Integrasi&lt;/div&gt;" style="edgeLabel;html=1;align=center;verticalAlign=middle;resizable=0;points=[];" vertex="1" connectable="0" parent="L7Zl3QWs8CthCIQaCz2B-9">
          <mxGeometry x="0.032" y="1" relative="1" as="geometry">
            <mxPoint as="offset" />
          </mxGeometry>
        </mxCell>
        <mxCell id="L7Zl3QWs8CthCIQaCz2B-11" value="" style="endArrow=classic;html=1;rounded=0;exitX=0.5;exitY=1;exitDx=0;exitDy=0;entryX=0.5;entryY=0;entryDx=0;entryDy=0;" edge="1" parent="1" source="L7Zl3QWs8CthCIQaCz2B-1" target="L7Zl3QWs8CthCIQaCz2B-3">
          <mxGeometry width="50" height="50" relative="1" as="geometry">
            <mxPoint x="175" y="280" as="sourcePoint" />
            <mxPoint x="255" y="340" as="targetPoint" />
          </mxGeometry>
        </mxCell>
        <mxCell id="L7Zl3QWs8CthCIQaCz2B-12" value="&lt;div&gt;Integrasi&lt;/div&gt;" style="edgeLabel;html=1;align=center;verticalAlign=middle;resizable=0;points=[];" vertex="1" connectable="0" parent="L7Zl3QWs8CthCIQaCz2B-11">
          <mxGeometry x="0.032" y="1" relative="1" as="geometry">
            <mxPoint as="offset" />
          </mxGeometry>
        </mxCell>
        <mxCell id="L7Zl3QWs8CthCIQaCz2B-13" value="https://gitlab.playcourt.id/telkom-digital/smb/padiumkm-marketplace/core/padi-core-fe-chat" style="text;html=1;strokeColor=none;fillColor=none;align=left;verticalAlign=middle;whiteSpace=wrap;rounded=0;" vertex="1" parent="1">
          <mxGeometry x="450" y="120" width="380" height="30" as="geometry" />
        </mxCell>
        <mxCell id="L7Zl3QWs8CthCIQaCz2B-15" value="https://gitlab.playcourt.id/telkom-digital/smb/padiumkm-marketplace/core/padi-ms-core-chat" style="text;html=1;strokeColor=none;fillColor=none;align=left;verticalAlign=middle;whiteSpace=wrap;rounded=0;" vertex="1" parent="1">
          <mxGeometry x="450" y="165" width="390" height="30" as="geometry" />
        </mxCell>
        <mxCell id="L7Zl3QWs8CthCIQaCz2B-17" value="CMS" style="rounded=0;whiteSpace=wrap;html=1;fillColor=#dae8fc;strokeColor=#6c8ebf;" vertex="1" parent="1">
          <mxGeometry x="80" y="480" width="120" height="60" as="geometry" />
        </mxCell>
        <mxCell id="L7Zl3QWs8CthCIQaCz2B-21" style="edgeStyle=orthogonalEdgeStyle;rounded=0;orthogonalLoop=1;jettySize=auto;html=1;entryX=0;entryY=0.5;entryDx=0;entryDy=0;" edge="1" parent="1" source="L7Zl3QWs8CthCIQaCz2B-19" target="L7Zl3QWs8CthCIQaCz2B-3">
          <mxGeometry relative="1" as="geometry" />
        </mxCell>
        <mxCell id="L7Zl3QWs8CthCIQaCz2B-19" value="CRUD Word Cesor" style="shape=parallelogram;perimeter=parallelogramPerimeter;whiteSpace=wrap;html=1;fixedSize=1;" vertex="1" parent="1">
          <mxGeometry x="-30" y="420" width="140" height="40" as="geometry" />
        </mxCell>
        <mxCell id="L7Zl3QWs8CthCIQaCz2B-20" style="edgeStyle=orthogonalEdgeStyle;rounded=0;orthogonalLoop=1;jettySize=auto;html=1;entryX=0.408;entryY=1.033;entryDx=0;entryDy=0;entryPerimeter=0;exitX=0;exitY=0.5;exitDx=0;exitDy=0;" edge="1" parent="1" source="L7Zl3QWs8CthCIQaCz2B-17" target="L7Zl3QWs8CthCIQaCz2B-19">
          <mxGeometry relative="1" as="geometry" />
        </mxCell>
        <mxCell id="L7Zl3QWs8CthCIQaCz2B-22" value="Read-only Word Cesor" style="shape=parallelogram;perimeter=parallelogramPerimeter;whiteSpace=wrap;html=1;fixedSize=1;" vertex="1" parent="1">
          <mxGeometry x="-20" y="240" width="160" height="40" as="geometry" />
        </mxCell>
        <mxCell id="L7Zl3QWs8CthCIQaCz2B-24" value="MS CHAT PODS" style="rounded=0;whiteSpace=wrap;html=1;" vertex="1" parent="1">
          <mxGeometry x="630" y="540" width="120" height="60" as="geometry" />
        </mxCell>
        <mxCell id="L7Zl3QWs8CthCIQaCz2B-26" style="edgeStyle=orthogonalEdgeStyle;rounded=0;orthogonalLoop=1;jettySize=auto;html=1;exitX=1;exitY=0.5;exitDx=0;exitDy=0;entryX=0;entryY=0.5;entryDx=0;entryDy=0;" edge="1" parent="1" source="L7Zl3QWs8CthCIQaCz2B-25" target="L7Zl3QWs8CthCIQaCz2B-24">
          <mxGeometry relative="1" as="geometry" />
        </mxCell>
        <mxCell id="L7Zl3QWs8CthCIQaCz2B-25" value="Gateway" style="rounded=0;whiteSpace=wrap;html=1;" vertex="1" parent="1">
          <mxGeometry x="440" y="540" width="120" height="60" as="geometry" />
        </mxCell>
      </root>
    </mxGraphModel>
  </diagram>
  <diagram id="nFkS9BRE9M-niLFiysaL" name="Chat Authentication ">
    <mxGraphModel dx="636" dy="338" grid="1" gridSize="10" guides="1" tooltips="1" connect="1" arrows="1" fold="1" page="1" pageScale="1" pageWidth="1100" pageHeight="850" math="0" shadow="0">
      <root>
        <mxCell id="0" />
        <mxCell id="1" parent="0" />
        <mxCell id="PBRD8OXH9wPvSlpVfhk5-1" value="padiumkm.id" style="swimlane;whiteSpace=wrap;html=1;fillColor=#d5e8d4;strokeColor=#82b366;opacity=50;" vertex="1" parent="1">
          <mxGeometry x="221" y="40" width="450" height="360" as="geometry" />
        </mxCell>
        <mxCell id="PBRD8OXH9wPvSlpVfhk5-13" style="edgeStyle=orthogonalEdgeStyle;rounded=0;orthogonalLoop=1;jettySize=auto;html=1;entryX=0.5;entryY=0;entryDx=0;entryDy=0;endArrow=none;endFill=0;dashed=1;" edge="1" parent="PBRD8OXH9wPvSlpVfhk5-1" source="PBRD8OXH9wPvSlpVfhk5-8" target="PBRD8OXH9wPvSlpVfhk5-12">
          <mxGeometry relative="1" as="geometry" />
        </mxCell>
        <mxCell id="PBRD8OXH9wPvSlpVfhk5-8" value="&lt;div&gt;Login Page&lt;br&gt;&lt;/div&gt;" style="fontStyle=1;whiteSpace=wrap;html=1;fillColor=#eeeeee;strokeColor=#36393d;" vertex="1" parent="PBRD8OXH9wPvSlpVfhk5-1">
          <mxGeometry x="52" y="99" width="140" height="30" as="geometry" />
        </mxCell>
        <mxCell id="PBRD8OXH9wPvSlpVfhk5-16" style="edgeStyle=orthogonalEdgeStyle;rounded=0;orthogonalLoop=1;jettySize=auto;html=1;entryX=0.5;entryY=0;entryDx=0;entryDy=0;endArrow=none;endFill=0;dashed=1;" edge="1" parent="PBRD8OXH9wPvSlpVfhk5-1" source="PBRD8OXH9wPvSlpVfhk5-9" target="PBRD8OXH9wPvSlpVfhk5-15">
          <mxGeometry relative="1" as="geometry" />
        </mxCell>
        <mxCell id="PBRD8OXH9wPvSlpVfhk5-9" value="&lt;div&gt;Chat app&lt;br&gt;&lt;/div&gt;" style="fontStyle=1;whiteSpace=wrap;html=1;fillColor=#eeeeee;strokeColor=#36393d;" vertex="1" parent="PBRD8OXH9wPvSlpVfhk5-1">
          <mxGeometry x="272" y="99" width="140" height="30" as="geometry" />
        </mxCell>
        <mxCell id="PBRD8OXH9wPvSlpVfhk5-22" style="edgeStyle=orthogonalEdgeStyle;rounded=0;orthogonalLoop=1;jettySize=auto;html=1;endArrow=none;endFill=0;dashed=1;" edge="1" parent="PBRD8OXH9wPvSlpVfhk5-1" source="PBRD8OXH9wPvSlpVfhk5-12">
          <mxGeometry relative="1" as="geometry">
            <mxPoint x="122" y="230" as="targetPoint" />
          </mxGeometry>
        </mxCell>
        <mxCell id="PBRD8OXH9wPvSlpVfhk5-12" value="" style="rounded=0;whiteSpace=wrap;html=1;" vertex="1" parent="PBRD8OXH9wPvSlpVfhk5-1">
          <mxGeometry x="114" y="160" width="16" height="60" as="geometry" />
        </mxCell>
        <mxCell id="PBRD8OXH9wPvSlpVfhk5-32" style="edgeStyle=orthogonalEdgeStyle;rounded=0;orthogonalLoop=1;jettySize=auto;html=1;entryX=0.5;entryY=0;entryDx=0;entryDy=0;endArrow=none;endFill=0;dashed=1;" edge="1" parent="PBRD8OXH9wPvSlpVfhk5-1" source="PBRD8OXH9wPvSlpVfhk5-15" target="PBRD8OXH9wPvSlpVfhk5-31">
          <mxGeometry relative="1" as="geometry" />
        </mxCell>
        <mxCell id="PBRD8OXH9wPvSlpVfhk5-15" value="" style="rounded=0;whiteSpace=wrap;html=1;" vertex="1" parent="PBRD8OXH9wPvSlpVfhk5-1">
          <mxGeometry x="334" y="175" width="16" height="60" as="geometry" />
        </mxCell>
        <mxCell id="PBRD8OXH9wPvSlpVfhk5-14" value="[Login Valid] &lt;span lang=&quot;en&quot; class=&quot;HwtZe&quot;&gt;&lt;span class=&quot;jCAhz JxVs2d&quot;&gt;&lt;span class=&quot;ryNqvb&quot;&gt;receive&lt;/span&gt;&lt;/span&gt;&lt;/span&gt;&lt;span class=&quot;ZSCsVd&quot;&gt; JWT&lt;br&gt;&lt;/span&gt;" style="html=1;verticalAlign=bottom;labelBackgroundColor=none;endArrow=open;endFill=0;rounded=0;exitX=1;exitY=0.5;exitDx=0;exitDy=0;edgeStyle=orthogonalEdgeStyle;entryX=0;entryY=0.25;entryDx=0;entryDy=0;" edge="1" parent="PBRD8OXH9wPvSlpVfhk5-1" source="PBRD8OXH9wPvSlpVfhk5-12" target="PBRD8OXH9wPvSlpVfhk5-15">
          <mxGeometry width="160" relative="1" as="geometry">
            <mxPoint x="216" y="198" as="sourcePoint" />
            <mxPoint x="321" y="189" as="targetPoint" />
          </mxGeometry>
        </mxCell>
        <mxCell id="PBRD8OXH9wPvSlpVfhk5-21" value="" style="rounded=0;whiteSpace=wrap;html=1;" vertex="1" parent="PBRD8OXH9wPvSlpVfhk5-1">
          <mxGeometry x="114" y="235" width="16" height="60" as="geometry" />
        </mxCell>
        <mxCell id="PBRD8OXH9wPvSlpVfhk5-24" value="[Login Invalid]&lt;span class=&quot;ZSCsVd&quot;&gt;&lt;br&gt;&lt;/span&gt;" style="html=1;verticalAlign=bottom;labelBackgroundColor=none;endArrow=open;endFill=0;rounded=0;exitX=1;exitY=0.75;exitDx=0;exitDy=0;edgeStyle=orthogonalEdgeStyle;entryX=1;entryY=0.25;entryDx=0;entryDy=0;" edge="1" parent="PBRD8OXH9wPvSlpVfhk5-1" source="PBRD8OXH9wPvSlpVfhk5-12" target="PBRD8OXH9wPvSlpVfhk5-21">
          <mxGeometry x="0.5472" y="-10" width="160" relative="1" as="geometry">
            <mxPoint x="140" y="250" as="sourcePoint" />
            <mxPoint x="344" y="250" as="targetPoint" />
            <Array as="points">
              <mxPoint x="240" y="205" />
              <mxPoint x="240" y="250" />
            </Array>
            <mxPoint as="offset" />
          </mxGeometry>
        </mxCell>
        <mxCell id="PBRD8OXH9wPvSlpVfhk5-31" value="" style="rounded=0;whiteSpace=wrap;html=1;" vertex="1" parent="PBRD8OXH9wPvSlpVfhk5-1">
          <mxGeometry x="334" y="280" width="16" height="40" as="geometry" />
        </mxCell>
        <mxCell id="PBRD8OXH9wPvSlpVfhk5-46" value="2" style="ellipse;whiteSpace=wrap;html=1;aspect=fixed;fontStyle=1;fontSize=10;" vertex="1" parent="PBRD8OXH9wPvSlpVfhk5-1">
          <mxGeometry x="149" y="160" width="18" height="18" as="geometry" />
        </mxCell>
        <mxCell id="PBRD8OXH9wPvSlpVfhk5-2" value="ms-core-chat" style="swimlane;whiteSpace=wrap;html=1;fillColor=#d5e8d4;strokeColor=#82b366;startSize=23;opacity=50;" vertex="1" parent="1">
          <mxGeometry x="701" y="40" width="280" height="360" as="geometry" />
        </mxCell>
        <mxCell id="PBRD8OXH9wPvSlpVfhk5-30" style="edgeStyle=orthogonalEdgeStyle;rounded=0;orthogonalLoop=1;jettySize=auto;html=1;entryX=0.5;entryY=0;entryDx=0;entryDy=0;endArrow=none;endFill=0;dashed=1;" edge="1" parent="PBRD8OXH9wPvSlpVfhk5-2" source="PBRD8OXH9wPvSlpVfhk5-25" target="PBRD8OXH9wPvSlpVfhk5-28">
          <mxGeometry relative="1" as="geometry" />
        </mxCell>
        <mxCell id="PBRD8OXH9wPvSlpVfhk5-25" value="&lt;div&gt;Custom Token&lt;br&gt;&lt;/div&gt;" style="fontStyle=1;whiteSpace=wrap;html=1;fillColor=#eeeeee;strokeColor=#36393d;" vertex="1" parent="PBRD8OXH9wPvSlpVfhk5-2">
          <mxGeometry x="70" y="99" width="140" height="30" as="geometry" />
        </mxCell>
        <mxCell id="PBRD8OXH9wPvSlpVfhk5-28" value="" style="rounded=0;whiteSpace=wrap;html=1;" vertex="1" parent="PBRD8OXH9wPvSlpVfhk5-2">
          <mxGeometry x="132" y="175" width="16" height="60" as="geometry" />
        </mxCell>
        <mxCell id="PBRD8OXH9wPvSlpVfhk5-5" style="edgeStyle=orthogonalEdgeStyle;rounded=0;orthogonalLoop=1;jettySize=auto;html=1;entryX=0.5;entryY=0;entryDx=0;entryDy=0;dashed=1;" edge="1" parent="1" source="PBRD8OXH9wPvSlpVfhk5-3" target="PBRD8OXH9wPvSlpVfhk5-4">
          <mxGeometry relative="1" as="geometry" />
        </mxCell>
        <mxCell id="PBRD8OXH9wPvSlpVfhk5-3" value="Client" style="rounded=0;whiteSpace=wrap;html=1;fillColor=#d0cee2;strokeColor=#56517e;" vertex="1" parent="1">
          <mxGeometry x="40" y="40" width="120" height="51" as="geometry" />
        </mxCell>
        <mxCell id="PBRD8OXH9wPvSlpVfhk5-18" style="edgeStyle=orthogonalEdgeStyle;rounded=0;orthogonalLoop=1;jettySize=auto;html=1;entryX=0.5;entryY=0;entryDx=0;entryDy=0;endArrow=none;endFill=0;dashed=1;" edge="1" parent="1" source="PBRD8OXH9wPvSlpVfhk5-4" target="PBRD8OXH9wPvSlpVfhk5-17">
          <mxGeometry relative="1" as="geometry" />
        </mxCell>
        <mxCell id="PBRD8OXH9wPvSlpVfhk5-4" value="" style="rounded=0;whiteSpace=wrap;html=1;" vertex="1" parent="1">
          <mxGeometry x="92" y="148" width="16" height="26" as="geometry" />
        </mxCell>
        <mxCell id="PBRD8OXH9wPvSlpVfhk5-11" value="Auth with credential" style="html=1;verticalAlign=bottom;labelBackgroundColor=none;endArrow=open;endFill=0;rounded=0;entryX=0;entryY=0.5;entryDx=0;entryDy=0;exitX=1;exitY=0.25;exitDx=0;exitDy=0;" edge="1" parent="1" source="PBRD8OXH9wPvSlpVfhk5-4" target="PBRD8OXH9wPvSlpVfhk5-8">
          <mxGeometry width="160" relative="1" as="geometry">
            <mxPoint x="340" y="191" as="sourcePoint" />
            <mxPoint x="500" y="191" as="targetPoint" />
          </mxGeometry>
        </mxCell>
        <mxCell id="PBRD8OXH9wPvSlpVfhk5-17" value="" style="rounded=0;whiteSpace=wrap;html=1;" vertex="1" parent="1">
          <mxGeometry x="92" y="190" width="16" height="80" as="geometry" />
        </mxCell>
        <mxCell id="PBRD8OXH9wPvSlpVfhk5-20" value="Save JWT in cookies.access_token" style="html=1;verticalAlign=bottom;labelBackgroundColor=none;endArrow=open;endFill=0;rounded=0;dashed=1;exitX=0;exitY=0.5;exitDx=0;exitDy=0;" edge="1" parent="1" source="PBRD8OXH9wPvSlpVfhk5-12" target="PBRD8OXH9wPvSlpVfhk5-17">
          <mxGeometry width="160" relative="1" as="geometry">
            <mxPoint x="181" y="220" as="sourcePoint" />
            <mxPoint x="161" y="280" as="targetPoint" />
          </mxGeometry>
        </mxCell>
        <mxCell id="PBRD8OXH9wPvSlpVfhk5-29" value="Check Padi user by JWT" style="html=1;verticalAlign=bottom;labelBackgroundColor=none;endArrow=open;endFill=0;rounded=0;exitX=1;exitY=0.75;exitDx=0;exitDy=0;edgeStyle=orthogonalEdgeStyle;entryX=0;entryY=0.75;entryDx=0;entryDy=0;" edge="1" parent="1" source="PBRD8OXH9wPvSlpVfhk5-15" target="PBRD8OXH9wPvSlpVfhk5-28">
          <mxGeometry width="160" relative="1" as="geometry">
            <mxPoint x="645" y="320" as="sourcePoint" />
            <mxPoint x="849" y="320" as="targetPoint" />
          </mxGeometry>
        </mxCell>
        <mxCell id="PBRD8OXH9wPvSlpVfhk5-34" value="[Session Created] Firebase Auth" style="html=1;verticalAlign=bottom;labelBackgroundColor=none;endArrow=open;endFill=0;rounded=0;exitX=0.5;exitY=1;exitDx=0;exitDy=0;edgeStyle=orthogonalEdgeStyle;entryX=1;entryY=0.25;entryDx=0;entryDy=0;dashed=1;" edge="1" parent="1" source="PBRD8OXH9wPvSlpVfhk5-28" target="PBRD8OXH9wPvSlpVfhk5-31">
          <mxGeometry x="0.2062" width="160" relative="1" as="geometry">
            <mxPoint x="600" y="390" as="sourcePoint" />
            <mxPoint x="862" y="390" as="targetPoint" />
            <mxPoint as="offset" />
          </mxGeometry>
        </mxCell>
        <mxCell id="PBRD8OXH9wPvSlpVfhk5-35" value="Run-time auth" style="swimlane;whiteSpace=wrap;html=1;fillColor=#e1d5e7;strokeColor=#9673a6;startSize=23;opacity=50;" vertex="1" parent="1">
          <mxGeometry x="221" y="425" width="449" height="255" as="geometry" />
        </mxCell>
        <mxCell id="PBRD8OXH9wPvSlpVfhk5-36" style="edgeStyle=orthogonalEdgeStyle;rounded=0;orthogonalLoop=1;jettySize=auto;html=1;entryX=0.5;entryY=0;entryDx=0;entryDy=0;endArrow=none;endFill=0;dashed=1;" edge="1" parent="PBRD8OXH9wPvSlpVfhk5-35" source="PBRD8OXH9wPvSlpVfhk5-37" target="PBRD8OXH9wPvSlpVfhk5-38">
          <mxGeometry relative="1" as="geometry" />
        </mxCell>
        <mxCell id="PBRD8OXH9wPvSlpVfhk5-37" value="&lt;div&gt;Chat app&lt;/div&gt;" style="fontStyle=1;whiteSpace=wrap;html=1;fillColor=#eeeeee;strokeColor=#36393d;" vertex="1" parent="PBRD8OXH9wPvSlpVfhk5-35">
          <mxGeometry x="79.5" y="55" width="140" height="30" as="geometry" />
        </mxCell>
        <mxCell id="PBRD8OXH9wPvSlpVfhk5-38" value="" style="rounded=0;whiteSpace=wrap;html=1;" vertex="1" parent="PBRD8OXH9wPvSlpVfhk5-35">
          <mxGeometry x="141.5" y="131" width="16" height="60" as="geometry" />
        </mxCell>
        <mxCell id="PBRD8OXH9wPvSlpVfhk5-42" style="rounded=0;orthogonalLoop=1;jettySize=auto;html=1;entryX=1;entryY=0.5;entryDx=0;entryDy=0;strokeColor=#00FF00;exitX=0;exitY=0.5;exitDx=0;exitDy=0;" edge="1" parent="PBRD8OXH9wPvSlpVfhk5-35" source="PBRD8OXH9wPvSlpVfhk5-39" target="PBRD8OXH9wPvSlpVfhk5-38">
          <mxGeometry relative="1" as="geometry">
            <mxPoint x="339" y="201" as="sourcePoint" />
          </mxGeometry>
        </mxCell>
        <mxCell id="PBRD8OXH9wPvSlpVfhk5-43" value="authenticated" style="edgeLabel;html=1;align=center;verticalAlign=middle;resizable=0;points=[];" vertex="1" connectable="0" parent="PBRD8OXH9wPvSlpVfhk5-42">
          <mxGeometry x="-0.0654" relative="1" as="geometry">
            <mxPoint as="offset" />
          </mxGeometry>
        </mxCell>
        <mxCell id="PBRD8OXH9wPvSlpVfhk5-39" value="Listen auth state" style="rhombus;whiteSpace=wrap;html=1;movable=1;resizable=1;rotatable=1;deletable=1;editable=1;locked=0;connectable=1;fillColor=#dae8fc;strokeColor=#6c8ebf;" vertex="1" parent="PBRD8OXH9wPvSlpVfhk5-35">
          <mxGeometry x="299" y="121" width="80" height="80" as="geometry" />
        </mxCell>
        <mxCell id="PBRD8OXH9wPvSlpVfhk5-40" style="edgeStyle=orthogonalEdgeStyle;rounded=0;orthogonalLoop=1;jettySize=auto;html=1;entryX=1;entryY=0.25;entryDx=0;entryDy=0;strokeColor=#FF6666;" edge="1" parent="1" source="PBRD8OXH9wPvSlpVfhk5-39" target="PBRD8OXH9wPvSlpVfhk5-28">
          <mxGeometry relative="1" as="geometry">
            <mxPoint x="980" y="320" as="targetPoint" />
            <Array as="points">
              <mxPoint x="900" y="586" />
              <mxPoint x="900" y="230" />
            </Array>
          </mxGeometry>
        </mxCell>
        <mxCell id="PBRD8OXH9wPvSlpVfhk5-41" value="Revalidate session" style="edgeLabel;html=1;align=center;verticalAlign=middle;resizable=0;points=[];" vertex="1" connectable="0" parent="PBRD8OXH9wPvSlpVfhk5-40">
          <mxGeometry x="0.1485" y="-2" relative="1" as="geometry">
            <mxPoint as="offset" />
          </mxGeometry>
        </mxCell>
        <mxCell id="PBRD8OXH9wPvSlpVfhk5-45" value="1" style="ellipse;whiteSpace=wrap;html=1;aspect=fixed;fontStyle=1;fontSize=10;" vertex="1" parent="1">
          <mxGeometry x="120" y="130" width="18" height="18" as="geometry" />
        </mxCell>
        <mxCell id="PBRD8OXH9wPvSlpVfhk5-48" value="3" style="ellipse;whiteSpace=wrap;html=1;aspect=fixed;fontStyle=1;fontSize=10;" vertex="1" parent="1">
          <mxGeometry x="120" y="200" width="18" height="18" as="geometry" />
        </mxCell>
      </root>
    </mxGraphModel>
  </diagram>
</mxfile>
